<svg id="visual" viewBox="0 0 960 300" width="960" height="300" xmlns="http://www.w3.org/2000/svg" xmlns:xlink="http://www.w3.org/1999/xlink" version="1.1"><rect x="0" y="0" width="960" height="300" fill="#001220"></rect><path d="M0 82L22.8 86.5C45.7 91 91.3 100 137 101.2C182.7 102.3 228.3 95.7 274 90.8C319.7 86 365.3 83 411.2 81C457 79 503 78 548.8 84.7C594.7 91.3 640.3 105.7 686 113C731.7 120.3 777.3 120.7 823 116.8C868.7 113 914.3 105 937.2 101L960 97L960 0L937.2 0C914.3 0 868.7 0 823 0C777.3 0 731.7 0 686 0C640.3 0 594.7 0 548.8 0C503 0 457 0 411.2 0C365.3 0 319.7 0 274 0C228.3 0 182.7 0 137 0C91.3 0 45.7 0 22.8 0L0 0Z" fill="#fa7268"></path><path d="M0 79L22.8 80.7C45.7 82.3 91.3 85.7 137 86.2C182.7 86.7 228.3 84.3 274 84.5C319.7 84.7 365.3 87.3 411.2 85C457 82.7 503 75.3 548.8 72C594.7 68.7 640.3 69.3 686 72.8C731.7 76.3 777.3 82.7 823 87.7C868.7 92.7 914.3 96.3 937.2 98.2L960 100L960 0L937.2 0C914.3 0 868.7 0 823 0C777.3 0 731.7 0 686 0C640.3 0 594.7 0 548.8 0C503 0 457 0 411.2 0C365.3 0 319.7 0 274 0C228.3 0 182.7 0 137 0C91.3 0 45.7 0 22.8 0L0 0Z" fill="#ef5f67"></path><path d="M0 48L22.8 49.8C45.7 51.7 91.3 55.3 137 60.2C182.7 65 228.3 71 274 69.7C319.7 68.3 365.3 59.7 411.2 57C457 54.3 503 57.7 548.8 57C594.7 56.3 640.3 51.7 686 51.8C731.7 52 777.3 57 823 61.5C868.7 66 914.3 70 937.2 72L960 74L960 0L937.2 0C914.3 0 868.7 0 823 0C777.3 0 731.7 0 686 0C640.3 0 594.7 0 548.8 0C503 0 457 0 411.2 0C365.3 0 319.7 0 274 0C228.3 0 182.7 0 137 0C91.3 0 45.7 0 22.8 0L0 0Z" fill="#e34c67"></path><path d="M0 43L22.8 44.7C45.7 46.3 91.3 49.7 137 48.8C182.7 48 228.3 43 274 42.2C319.7 41.3 365.3 44.7 411.2 42.8C457 41 503 34 548.8 31.7C594.7 29.3 640.3 31.7 686 33.2C731.7 34.7 777.3 35.3 823 35.3C868.7 35.3 914.3 34.7 937.2 34.3L960 34L960 0L937.2 0C914.3 0 868.7 0 823 0C777.3 0 731.7 0 686 0C640.3 0 594.7 0 548.8 0C503 0 457 0 411.2 0C365.3 0 319.7 0 274 0C228.3 0 182.7 0 137 0C91.3 0 45.7 0 22.8 0L0 0Z" fill="#d53867"></path><path d="M0 29L22.8 29.5C45.7 30 91.3 31 137 28.8C182.7 26.7 228.3 21.3 274 21.8C319.7 22.3 365.3 28.7 411.2 28.7C457 28.7 503 22.3 548.8 19.8C594.7 17.3 640.3 18.7 686 20.2C731.7 21.7 777.3 23.3 823 24C868.7 24.7 914.3 24.3 937.2 24.2L960 24L960 0L937.2 0C914.3 0 868.7 0 823 0C777.3 0 731.7 0 686 0C640.3 0 594.7 0 548.8 0C503 0 457 0 411.2 0C365.3 0 319.7 0 274 0C228.3 0 182.7 0 137 0C91.3 0 45.7 0 22.8 0L0 0Z" fill="#c62368"></path></svg>